<svg viewBox="0 0 400 250" xmlns="http://www.w3.org/2000/svg" fill="none" stroke="#1a1612" stroke-width="1.2" font-family="serif" font-size="11"><path d="M50 20V210H370"/><path d="M47 210.0H50"/><text x="42.0" y="214.0" text-anchor="end" font-size="9" fill="#1a1612" stroke="none">0</text><path d="M47 172.0H50"/><text x="42.0" y="176.0" text-anchor="end" font-size="9" fill="#1a1612" stroke="none">4</text><path d="M47 134.0H50"/><text x="42.0" y="138.0" text-anchor="end" font-size="9" fill="#1a1612" stroke="none">8</text><path d="M47 96.0H50"/><text x="42.0" y="100.0" text-anchor="end" font-size="9" fill="#1a1612" stroke="none">12</text><path d="M47 58.0H50"/><text x="42.0" y="62.0" text-anchor="end" font-size="9" fill="#1a1612" stroke="none">16</text><path d="M47 20.0H50"/><text x="42.0" y="24.0" text-anchor="end" font-size="9" fill="#1a1612" stroke="none">20</text><path d="M50.0 210v3"/><text x="50.0" y="224.0" text-anchor="middle" font-size="9" fill="#1a1612" stroke="none">0</text><path d="M103.3 210v3"/><text x="103.3" y="224.0" text-anchor="middle" font-size="9" fill="#1a1612" stroke="none">100</text><path d="M156.7 210v3"/><text x="156.7" y="224.0" text-anchor="middle" font-size="9" fill="#1a1612" stroke="none">200</text><path d="M210.0 210v3"/><text x="210.0" y="224.0" text-anchor="middle" font-size="9" fill="#1a1612" stroke="none">300</text><path d="M263.3 210v3"/><text x="263.3" y="224.0" text-anchor="middle" font-size="9" fill="#1a1612" stroke="none">400</text><path d="M316.7 210v3"/><text x="316.7" y="224.0" text-anchor="middle" font-size="9" fill="#1a1612" stroke="none">500</text><path d="M370.0 210v3"/><text x="370.0" y="224.0" text-anchor="middle" font-size="9" fill="#1a1612" stroke="none">600</text><text x="210.0" y="244.0" text-anchor="middle" font-size="11" fill="#1a1612" stroke="none">Buns per day</text><text transform="translate(14,115) rotate(-90)" text-anchor="middle" fill="#1a1612" stroke="none">Price per bun (Tk)</text><path d="M50.0 39.0L338.0 210.0"/><text x="341.0" y="206.0" text-anchor="start" font-size="12" fill="#1a1612" stroke="none">D</text><path d="M50.0 153.0L274.0 20.0"/><text x="278.0" y="23.0" text-anchor="start" font-size="12" fill="#1a1612" stroke="none">S</text><circle cx="146.0" cy="96.0" r="2.5" fill="#1a1612"/><text x="152.0" y="90.0" text-anchor="start" font-size="12" fill="#1a1612" stroke="none">E</text><path d="M50 115.0H178.0" stroke-dasharray="2 3" stroke-width=".7"/><path d="M114.0 115.0H178.0" stroke-width="2.2"/><text x="183.0" y="118.0" text-anchor="start" font-size="9" font-style="italic" fill="#1a1612" stroke="none">Gap 120</text><path d="M50 58.0H210.0" stroke-dasharray="2 3" stroke-width=".7"/><path d="M82.0 58.0H210.0" stroke-width="2.2"/><text x="215.0" y="61.0" text-anchor="start" font-size="9" font-style="italic" fill="#1a1612" stroke="none">Gap 240</text><path d="M50 96.0H146.0V210" stroke-dasharray="2 3" stroke-width=".7"/></svg>